:SAMPLES-PER-SECOND 30
:FULLY-SPECIFIED
:DEGREES
141
root  -31.342 40.8299 5.47513 -40.7654 -83.9135 46.2268
RightUpLeg  -1.62341 -14.3358 -16.8991
RightLeg  6.6235 -12.7113 1.72847
RightFoot  -4.27842 -0.608993 9.37451
RightToes  0.000482159 0.542163 -0.142577
Spine  15.5908 2.10592 6.15892
Spine1  7.15418 6.09217 -11.857
HEad  -27.6402 -12.1601 2.49666
LeftShoulder1  6.31184 -10.3885 -39.2181
LeftArm  -14.1476 6.96526 -33.25
LeftForeArm  47.8779 -42.0246 -7.00065
LeftHand  -0.25398 0.0180481 5.50724
RightShoulder  6.78829 10.8749 41.0132
RightArm  -22.8261 -13.0139 37.1185
RightForeArm  -2.30909 18.2244 4.2653
RightHand  -1.7358 4.97308 -19.6101
LeftUpLeg  -12.6859 -0.0135113 -3.51031
LeftLeg  1.21324 4.64556 -4.55772
LeftFoot  5.90438 -0.702319 4.39211
LeftToes  1.06244e-005 4.65856e-005 -8.18505e-006
142
root  -31.1991 40.8284 5.51762 -43.9949 -84.3396 49.193
RightUpLeg  -1.79489 -14.2719 -16.8366
RightLeg  6.71268 -12.2293 1.67779
RightFoot  -4.13046 -0.614212 9.28057
RightToes  0.000482159 0.542163 -0.142577
Spine  15.8425 2.12857 6.30655
Spine1  7.86823 5.91315 -10.6038
HEad  -25.9707 -11.852 2.01299
LeftShoulder1  6.30455 -10.3369 -39.3289
LeftArm  -13.889 7.67663 -34.2589
LeftForeArm  46.4377 -39.9022 -6.47112
LeftHand  -0.25398 0.0180481 5.50724
RightShoulder  6.81459 11.0525 40.6388
RightArm  -23.8996 -13.2312 35.8273
RightForeArm  -1.49721 1.82446 2.39224
RightHand  -1.61881 4.66039 -18.867
LeftUpLeg  -12.5253 0.190086 -3.35284
LeftLeg  1.07511 4.9732 -4.6831
LeftFoot  6.02147 -0.679342 4.20718
LeftToes  1.06244e-005 4.65856e-005 -8.18505e-006
143
root  -31.0552 40.8241 5.58202 -50.4259 -84.8931 55.364
RightUpLeg  -2.08055 -14.1589 -16.785
RightLeg  6.80175 -11.5465 1.55722
RightFoot  -3.93583 -0.625921 9.2371
RightToes  0.000482159 0.542163 -0.142577
Spine  16.4181 2.24473 7.3125
Spine1  8.51765 6.22378 -10.3887
HEad  -24.6431 -12.2939 1.62962
LeftShoulder1  6.36672 -10.4774 -39.3178
LeftArm  -11.8804 7.77961 -34.667
LeftForeArm  44.7806 -36.7863 -5.72294
LeftHand  -0.25398 0.0180481 5.50724
RightShoulder  6.93998 11.2776 40.7687
RightArm  -21.0933 -16.8001 33.966
RightForeArm  2.04186 -2.44517 1.95898
RightHand  -2.17832 6.13693 -22.0058
LeftUpLeg  -12.4136 0.400278 -3.23875
LeftLeg  1.03474 5.58035 -4.81714
LeftFoot  6.11831 -0.697387 4.29695
LeftToes  1.06244e-005 4.65856e-005 -8.18505e-006
144
root  -30.9197 40.8148 5.67432 -57.4671 -85.3047 62.4545
RightUpLeg  -2.64275 -14.1375 -16.7847
RightLeg  6.85787 -10.9098 1.49817
RightFoot  -3.69057 -0.645587 9.25844
RightToes  0.000482159 0.542163 -0.142577
Spine  16.6916 2.07324 8.38348
Spine1  9.16861 6.31315 -10.535
HEad  -23.9704 -12.3936 1.5288
LeftShoulder1  6.30846 -10.3776 -39.229
LeftArm  -9.58593 7.88603 -34.6125
LeftForeArm  43.5254 -33.4451 -4.95654
LeftHand  -0.25398 0.0180481 5.50724
RightShoulder  6.7659 11.0369 40.3655
RightArm  -20.175 -22.8153 32.9825
RightForeArm  2.50578 3.33879 2.84996
RightHand  -2.68839 7.44321 -24.4274
LeftUpLeg  -12.6469 0.515449 -3.21054
LeftLeg  1.01698 6.20508 -4.97158
LeftFoot  6.22874 -0.737461 4.52418
LeftToes  1.06244e-005 4.65856e-005 -8.18505e-006
145
root  -30.8141 40.8071 5.77894 -63.8712 -85.5494 69.0915
RightUpLeg  -3.2349 -14.1486 -16.8323
RightLeg  6.79011 -10.4369 1.50828
RightFoot  -3.43479 -0.670933 9.34879
RightToes  0.000482159 0.542163 -0.142577
Spine  16.5412 1.52022 8.4031
Spine1  9.67056 5.5932 -9.93172
HEad  -23.2964 -11.1392 1.49847
LeftShoulder1  6.11637 -9.95243 -39.2344
LeftArm  -8.81462 8.96826 -34.3646
LeftForeArm  42.9037 -30.5506 -4.31743
LeftHand  -0.25398 0.0180481 5.50724
RightShoulder  6.15279 10.1963 38.8215
RightArm  -17.5513 -26.9133 32.4072
RightForeArm  0.860707 10.0036 4.60392
RightHand  -2.29224 6.91028 -21.7063
LeftUpLeg  -12.9496 0.579738 -3.22308
LeftLeg  0.841279 6.70136 -5.1543
LeftFoot  6.3295 -0.752865 4.59308
LeftToes  1.06244e-005 4.65856e-005 -8.18505e-006
146
root  -30.7396 40.8051 5.87777 -74.0783 -85.7679 79.4548
RightUpLeg  -3.74615 -14.0233 -16.8261
RightLeg  6.63952 -9.88464 1.43633
RightFoot  -3.2068 -0.698802 9.4983
RightToes  0.000482159 0.542163 -0.142577
Spine  16.3978 0.864655 7.58929
Spine1  9.91658 4.46505 -8.76251
HEad  -21.8954 -9.0036 1.23459
LeftShoulder1  5.96613 -9.57156 -39.3966
LeftArm  -9.10334 10.9218 -34.0927
LeftForeArm  41.3958 -27.7505 -3.76861
LeftHand  -0.25398 0.0180481 5.50724
RightShoulder  5.54056 9.33697 37.143
RightArm  -11.6272 -27.6598 31.1687
RightForeArm  0.723204 13.7253 5.73503
RightHand  -1.70119 5.71683 -18.0879
LeftUpLeg  -13.0197 0.652371 -3.21072
LeftLeg  0.514921 7.38676 -5.28614
LeftFoot  6.35622 -0.731153 4.44555
LeftToes  1.06244e-005 4.65856e-005 -8.18505e-006
147
root  -30.6725 40.8032 5.96929 -92.9795 -85.7983 98.3903
RightUpLeg  -4.38843 -13.7757 -16.7147
RightLeg  6.57268 -8.87008 1.22479
RightFoot  -2.97853 -0.726497 9.63686
RightToes  0.000482159 0.542163 -0.142577
Spine  16.5617 0.467042 7.0385
Spine1  10.0776 3.80288 -8.08016
HEad  -20.2294 -7.22029 0.816967
LeftShoulder1  5.95762 -9.48821 -39.6112
LeftArm  -8.6633 12.5025 -33.8562
LeftForeArm  37.8376 -24.2503 -3.29091
LeftHand  -0.25398 0.0180481 5.50724
RightShoulder  5.35572 9.14271 36.3622
RightArm  -6.97096 -27.3565 29.5854
RightForeArm  1.10221 17.0274 5.49305
RightHand  -1.74718 5.681 -18.5119
LeftUpLeg  -12.9717 0.767372 -3.14521
LeftLeg  0.282522 8.6196 -5.33621
LeftFoot  6.27535 -0.709948 4.33298
LeftToes  1.06244e-005 4.65856e-005 -8.18505e-006
148
root  -30.599 40.7975 6.05802 -115.085 -85.2301 120.456
RightUpLeg  -5.15641 -13.5528 -16.5699
RightLeg  6.58289 -7.42359 1.02714
RightFoot  -2.666 -0.753461 9.67135
RightToes  0.000482159 0.542163 -0.142577
Spine  16.9157 0.381091 7.0691
Spine1  10.3774 3.7796 -8.11578
HEad  -19.2897 -6.12186 0.427193
LeftShoulder1  5.99978 -9.5484 -39.7177
LeftArm  -8.26776 13.0487 -33.7064
LeftForeArm  34.9405 -20.1938 -3.30292
LeftHand  -0.25398 0.0180481 5.50724
RightShoulder  5.43873 9.40271 36.1548
RightArm  -6.02291 -27.2197 28.4989
RightForeArm  -3.57548 21.268 5.13549
RightHand  -2.29861 6.93137 -21.7944
LeftUpLeg  -12.9826 0.991926 -3.01384
LeftLeg  0.317603 10.1852 -5.40183
LeftFoot  6.11349 -0.721252 4.45391
LeftToes  1.06244e-005 4.65856e-005 -8.18505e-006
149
root  -30.5357 40.7937 6.14144 -130.638 -84.195 135.887
RightUpLeg  -5.71982 -13.3855 -16.4658
RightLeg  6.44463 -5.96888 0.979462
RightFoot  -2.2214 -0.782424 9.59863
RightToes  0.000482159 0.542163 -0.142577
Spine  17.228 0.377082 7.1261
Spine1  10.7744 3.8712 -8.22583
HEad  -19.001 -5.138 0.255945
LeftShoulder1  6.00442 -9.57903 -39.6497
LeftArm  -9.85865 13.2612 -33.7026
LeftForeArm  35.8041 -16.8074 -3.81414
LeftHand  -0.25398 0.0180481 5.50724
RightShoulder  5.42301 9.44337 35.9061
RightArm  -7.235 -25.9024 28.1618
RightForeArm  -11.2385 25.0781 5.88261
RightHand  -2.82743 8.43978 -23.86
LeftUpLeg  -12.9644 1.34174 -2.81995
LeftLeg  0.501248 11.594 -5.54517
LeftFoot  5.93003 -0.751961 4.71088
LeftToes  1.06244e-005 4.65856e-005 -8.18505e-006
150
root  -30.5028 40.7983 6.215 -139.816 -83.0935 144.904
RightUpLeg  -5.96472 -13.1816 -16.3908
RightLeg  6.04437 -4.80124 1.01176
RightFoot  -1.69066 -0.815891 9.50687
RightToes  0.000482159 0.542163 -0.142577
Spine  17.3913 0.295576 6.96365
Spine1  11.0754 3.76852 -8.12482
HEad  -18.5244 -4.02962 0.143545
LeftShoulder1  5.99612 -9.60407 -39.5067
LeftArm  -11.3588 13.9052 -33.8013
LeftForeArm  37.6675 -15.2286 -3.914
LeftHand  -0.25398 0.0180481 5.50724
RightShoulder  5.3052 9.19982 35.786
RightArm  -8.74825 -22.8462 28.2699
RightForeArm  -15.2985 28.0142 6.8209
RightHand  -2.89715 8.72503 -23.9264
LeftUpLeg  -12.8262 1.66161 -2.62907
LeftLeg  0.613861 12.7584 -5.66972
LeftFoot  5.78363 -0.773112 4.89773
LeftToes  1.06244e-005 4.65856e-005 -8.18505e-006
151
root  -30.4918 40.807 6.28059 -145.547 -82.0201 150.527
RightUpLeg  -6.12979 -12.9319 -16.3118
RightLeg  5.56068 -3.87418 0.994859
RightFoot  -1.17062 -0.850425 9.44579
RightToes  0.000482159 0.542163 -0.142577
Spine  17.4628 0.195646 6.87011
Spine1  11.2235 3.6477 -8.05326
HEad  -17.659 -3.11386 -0.162382
LeftShoulder1  6.00883 -9.64565 -39.4616
LeftArm  -11.4403 14.7035 -33.7469
LeftForeArm  37.9453 -15.2977 -3.86277
LeftHand  -0.25398 0.0180481 5.50724
RightShoulder  5.29967 9.11818 36.0059
RightArm  -11.324 -19.2928 28.6574
RightForeArm  -13.59 31.1034 7.53011
RightHand  -2.75281 8.12139 -23.7542
LeftUpLeg  -12.6834 1.81584 -2.51572
LeftLeg  0.638907 13.8693 -5.68505
LeftFoot  5.6874 -0.783127 4.99655
LeftToes  1.06244e-005 4.65856e-005 -8.18505e-006
152
root  -30.4791 40.811 6.34501 -149.159 -81.0316 154.066
RightUpLeg  -6.3531 -12.7532 -16.2645
RightLeg  5.22532 -3.04408 0.937834
RightFoot  -0.734098 -0.87911 9.39568
RightToes  0.000482159 0.542163 -0.142577
Spine  17.5618 0.192753 7.00848
Spine1  11.3206 3.69058 -8.07266
HEad  -16.9922 -2.59911 -0.667178
LeftShoulder1  6.0328 -9.66302 -39.5773
LeftArm  -10.631 15.0174 -33.5595
LeftForeArm  36.6302 -16.2335 -3.81882
LeftHand  -0.25398 0.0180481 5.50724
RightShoulder  5.387 9.2856 36.137
RightArm  -13.7801 -15.9061 29.4077
RightForeArm  -10.7769 34.6468 8.36448
RightHand  -2.91919 8.46796 -24.5118
LeftUpLeg  -12.618 1.87797 -2.48005
LeftLeg  0.700093 14.9054 -5.65793
LeftFoot  5.60389 -0.800469 5.14117
LeftToes  1.06244e-005 4.65856e-005 -8.18505e-006
